Normalized EMG Linear Envelopes
nRows=54
nColumns=17

endheader
time	        VM	        VL	        RF	       GRA	        TA	   ADDLONG	   SEMIMEM	      BFLH	        GM	        GL	       TFL	   GLUTMAX	   GLUTMED	      PIRI	    OBTINT	        QF	
1.4	  0.130264	  0.091245	  0.017004	  0.083795	  0.087033	  0.027157	  0.151615	  0.183009	  0.077416	  0.037834	  0.010103	  0.137019	  0.203424	  0.217609	  0.074507	  0.319712	
1.4005	  0.134509	  0.093999	  0.017530	  0.086006	  0.088725	  0.027875	  0.154882	  0.187076	  0.079612	  0.039428	  0.010493	  0.141886	  0.207009	  0.222211	  0.076742	  0.329414	
1.401	  0.138823	  0.096793	  0.018064	  0.088244	  0.090425	  0.028602	  0.158172	  0.191177	  0.081838	  0.041054	  0.010889	  0.146839	  0.210599	  0.226845	  0.079008	  0.339259	
1.4015	  0.143205	  0.099628	  0.018605	  0.090507	  0.092132	  0.029337	  0.161484	  0.195309	  0.084094	  0.042712	  0.011293	  0.151876	  0.214194	  0.231509	  0.081308	  0.349248	
1.402	  0.147655	  0.102503	  0.019155	  0.092797	  0.093846	  0.030080	  0.164818	  0.199471	  0.086379	  0.044402	  0.011705	  0.157000	  0.217792	  0.236202	  0.083639	  0.359378	
1.4025	  0.152173	  0.105418	  0.019712	  0.095112	  0.095565	  0.030832	  0.168173	  0.203663	  0.088693	  0.046124	  0.012123	  0.162208	  0.221391	  0.240923	  0.086002	  0.369650	
1.403	  0.156759	  0.108372	  0.020278	  0.097451	  0.097288	  0.031593	  0.171546	  0.207882	  0.091035	  0.047879	  0.012550	  0.167502	  0.224989	  0.245669	  0.088397	  0.380062	
1.4035	  0.161412	  0.111366	  0.020851	  0.099816	  0.099016	  0.032361	  0.174938	  0.212128	  0.093405	  0.049666	  0.012983	  0.172882	  0.228584	  0.250440	  0.090824	  0.390614	
1.404	  0.166132	  0.114399	  0.021432	  0.102204	  0.100747	  0.033138	  0.178346	  0.216398	  0.095804	  0.051486	  0.013424	  0.178347	  0.232174	  0.255233	  0.093281	  0.401304	
1.4045	  0.170920	  0.117470	  0.022020	  0.104616	  0.102480	  0.033922	  0.181770	  0.220692	  0.098230	  0.053338	  0.013873	  0.183897	  0.235759	  0.260047	  0.095770	  0.412131	
1.405	  0.175774	  0.120580	  0.022616	  0.107050	  0.104215	  0.034714	  0.185207	  0.225008	  0.100683	  0.055223	  0.014329	  0.189532	  0.239334	  0.264881	  0.098288	  0.423094	
1.4055	  0.180695	  0.123728	  0.023220	  0.109507	  0.105951	  0.035513	  0.188657	  0.229344	  0.103163	  0.057141	  0.014792	  0.195252	  0.242899	  0.269732	  0.100837	  0.434191	
1.406	  0.185681	  0.126913	  0.023831	  0.111986	  0.107686	  0.036320	  0.192118	  0.233699	  0.105670	  0.059092	  0.015263	  0.201058	  0.246452	  0.274598	  0.103416	  0.445422	
1.4065	  0.190733	  0.130136	  0.024450	  0.114486	  0.109421	  0.037135	  0.195588	  0.238070	  0.108202	  0.061076	  0.015741	  0.206947	  0.249990	  0.279478	  0.106024	  0.456783	
1.407	  0.195849	  0.133394	  0.025076	  0.117007	  0.111153	  0.037956	  0.199066	  0.242457	  0.110759	  0.063092	  0.016227	  0.212920	  0.253512	  0.284369	  0.108660	  0.468274	
1.4075	  0.201030	  0.136688	  0.025710	  0.119547	  0.112883	  0.038784	  0.202551	  0.246856	  0.113341	  0.065141	  0.016720	  0.218978	  0.257014	  0.289271	  0.111325	  0.479893	
1.408	  0.206274	  0.140018	  0.026350	  0.122106	  0.114608	  0.039618	  0.206040	  0.251267	  0.115947	  0.067224	  0.017221	  0.225118	  0.260496	  0.294179	  0.114018	  0.491637	
1.4085	  0.211581	  0.143382	  0.026998	  0.124684	  0.116328	  0.040459	  0.209531	  0.255687	  0.118577	  0.069338	  0.017729	  0.231341	  0.263954	  0.299094	  0.116738	  0.503505	
1.409	  0.216951	  0.146780	  0.027653	  0.127279	  0.118042	  0.041307	  0.213023	  0.260113	  0.121229	  0.071486	  0.018245	  0.237647	  0.267387	  0.304012	  0.119484	  0.515493	
1.4095	  0.222381	  0.150212	  0.028315	  0.129890	  0.119749	  0.042160	  0.216515	  0.264545	  0.123904	  0.073666	  0.018767	  0.244034	  0.270793	  0.308931	  0.122257	  0.527601	
1.41	  0.227873	  0.153675	  0.028983	  0.132518	  0.121448	  0.043019	  0.220003	  0.268979	  0.126600	  0.075879	  0.019298	  0.250501	  0.274168	  0.313849	  0.125055	  0.539825	
1.4105	  0.233423	  0.157171	  0.029658	  0.135160	  0.123137	  0.043883	  0.223487	  0.273414	  0.129317	  0.078124	  0.019835	  0.257049	  0.277510	  0.318764	  0.127878	  0.552162	
1.411	  0.239033	  0.160697	  0.030340	  0.137816	  0.124816	  0.044753	  0.226964	  0.277846	  0.132054	  0.080402	  0.020380	  0.263676	  0.280818	  0.323673	  0.130724	  0.564610	
1.4115	  0.244699	  0.164254	  0.031028	  0.140484	  0.126482	  0.045628	  0.230432	  0.282274	  0.134810	  0.082711	  0.020932	  0.270381	  0.284087	  0.328573	  0.133594	  0.577166	
1.412	  0.250422	  0.167839	  0.031723	  0.143165	  0.128135	  0.046507	  0.233888	  0.286695	  0.137584	  0.085052	  0.021491	  0.277164	  0.287317	  0.333463	  0.136487	  0.589826	
1.4125	  0.256201	  0.171454	  0.032423	  0.145856	  0.129774	  0.047391	  0.237331	  0.291105	  0.140375	  0.087425	  0.022057	  0.284023	  0.290503	  0.338339	  0.139401	  0.602588	
1.413	  0.262033	  0.175095	  0.033129	  0.148557	  0.131397	  0.048278	  0.240759	  0.295504	  0.143183	  0.089830	  0.022630	  0.290957	  0.293643	  0.343199	  0.142336	  0.615447	
1.4135	  0.267917	  0.178763	  0.033842	  0.151267	  0.133003	  0.049169	  0.244168	  0.299887	  0.146007	  0.092265	  0.023211	  0.297965	  0.296734	  0.348039	  0.145291	  0.628399	
1.414	  0.273854	  0.182456	  0.034559	  0.153983	  0.134590	  0.050064	  0.247557	  0.304252	  0.148845	  0.094731	  0.023798	  0.305045	  0.299775	  0.352857	  0.148266	  0.641442	
1.4145	  0.279839	  0.186174	  0.035283	  0.156706	  0.136158	  0.050962	  0.250924	  0.308596	  0.151696	  0.097228	  0.024392	  0.312197	  0.302760	  0.357650	  0.151258	  0.654571	
1.415	  0.285874	  0.189915	  0.036011	  0.159434	  0.137704	  0.051862	  0.254265	  0.312916	  0.154560	  0.099755	  0.024992	  0.319419	  0.305689	  0.362416	  0.154267	  0.667782	
1.4155	  0.291955	  0.193679	  0.036745	  0.162165	  0.139227	  0.052765	  0.257578	  0.317210	  0.157435	  0.102312	  0.025600	  0.326709	  0.308558	  0.367150	  0.157293	  0.681071	
1.416	  0.298082	  0.197464	  0.037483	  0.164898	  0.140727	  0.053670	  0.260860	  0.321473	  0.160321	  0.104898	  0.026214	  0.334067	  0.311364	  0.371852	  0.160333	  0.694433	
1.4165	  0.304253	  0.201269	  0.038226	  0.167632	  0.142201	  0.054577	  0.264109	  0.325704	  0.163216	  0.107513	  0.026834	  0.341490	  0.314106	  0.376516	  0.163388	  0.707865	
1.417	  0.310467	  0.205093	  0.038973	  0.170365	  0.143648	  0.055485	  0.267322	  0.329899	  0.166119	  0.110156	  0.027461	  0.348977	  0.316780	  0.381142	  0.166455	  0.721360	
1.4175	  0.316721	  0.208935	  0.039725	  0.173096	  0.145066	  0.056395	  0.270497	  0.334054	  0.169029	  0.112827	  0.028094	  0.356527	  0.319384	  0.385725	  0.169533	  0.734916	
1.418	  0.323015	  0.212794	  0.040480	  0.175824	  0.146456	  0.057305	  0.273629	  0.338168	  0.171945	  0.115526	  0.028734	  0.364137	  0.321917	  0.390265	  0.172622	  0.748526	
1.4185	  0.329347	  0.216668	  0.041240	  0.178546	  0.147814	  0.058215	  0.276716	  0.342236	  0.174865	  0.118252	  0.029379	  0.371807	  0.324376	  0.394758	  0.175720	  0.762187	
1.419	  0.335714	  0.220556	  0.042003	  0.181262	  0.149139	  0.059126	  0.279756	  0.346255	  0.177789	  0.121005	  0.030031	  0.379535	  0.326760	  0.399203	  0.178825	  0.775894	
1.4195	  0.342117	  0.224456	  0.042769	  0.183970	  0.150431	  0.060037	  0.282744	  0.350221	  0.180715	  0.123783	  0.030689	  0.387319	  0.329067	  0.403598	  0.181937	  0.789640	
1.42	  0.348552	  0.228368	  0.043539	  0.186668	  0.151688	  0.060948	  0.285678	  0.354133	  0.183642	  0.126587	  0.031353	  0.395158	  0.331298	  0.407940	  0.185053	  0.803423	
1.4205	  0.355020	  0.232289	  0.044312	  0.189355	  0.152909	  0.061858	  0.288554	  0.357986	  0.186569	  0.129416	  0.032023	  0.403050	  0.333450	  0.412229	  0.188173	  0.817236	
1.421	  0.361517	  0.236220	  0.045087	  0.192029	  0.154092	  0.062767	  0.291369	  0.361777	  0.189494	  0.132268	  0.032698	  0.410993	  0.335523	  0.416463	  0.191294	  0.831074	
1.4215	  0.368042	  0.240157	  0.045866	  0.194689	  0.155237	  0.063676	  0.294120	  0.365502	  0.192416	  0.135144	  0.033380	  0.418985	  0.337517	  0.420642	  0.194416	  0.844933	
1.422	  0.374595	  0.244101	  0.046647	  0.197334	  0.156341	  0.064583	  0.296803	  0.369158	  0.195334	  0.138043	  0.034067	  0.427026	  0.339432	  0.424763	  0.197538	  0.858806	
1.4225	  0.381174	  0.248050	  0.047430	  0.199962	  0.157406	  0.065489	  0.299417	  0.372742	  0.198246	  0.140964	  0.034759	  0.435113	  0.341267	  0.428826	  0.200657	  0.872688	
1.423	  0.387777	  0.252003	  0.048216	  0.202571	  0.158428	  0.066393	  0.301957	  0.376249	  0.201152	  0.143907	  0.035458	  0.443245	  0.343024	  0.432829	  0.203773	  0.886575	
1.4235	  0.394403	  0.255959	  0.049004	  0.205162	  0.159408	  0.067296	  0.304423	  0.379677	  0.204050	  0.146870	  0.036162	  0.451420	  0.344703	  0.436773	  0.206885	  0.900462	
1.424	  0.401052	  0.259917	  0.049793	  0.207732	  0.160344	  0.068197	  0.306812	  0.383022	  0.206939	  0.149853	  0.036871	  0.459637	  0.346304	  0.440657	  0.209990	  0.914344	
1.4245	  0.407721	  0.263876	  0.050585	  0.210282	  0.161237	  0.069097	  0.309122	  0.386280	  0.209818	  0.152856	  0.037587	  0.467894	  0.347830	  0.444482	  0.213089	  0.928218	
1.425	  0.414411	  0.267835	  0.051378	  0.212810	  0.162087	  0.069994	  0.311352	  0.389448	  0.212686	  0.155878	  0.038307	  0.476191	  0.349282	  0.448246	  0.216180	  0.942080	
1.4255	  0.421119	  0.271792	  0.052173	  0.215317	  0.162892	  0.070889	  0.313500	  0.392523	  0.215541	  0.158917	  0.039033	  0.484525	  0.350660	  0.451952	  0.219261	  0.955927	
1.426	  0.427844	  0.275747	  0.052968	  0.217801	  0.163654	  0.071781	  0.315565	  0.395503	  0.218382	  0.161972	  0.039765	  0.492896	  0.351966	  0.455600	  0.222331	  0.969756	
1.4265	  0.434585	  0.279698	  0.053765	  0.220264	  0.164372	  0.072671	  0.317547	  0.398387	  0.221207	  0.165044	  0.040502	  0.501301	  0.353201	  0.459190	  0.225390	  0.983564	
